<svg xmlns="http://www.w3.org/2000/svg" width="21.384" height="18.094" viewBox="0 0 21.384 18.094">
  <g id="log-out-sharp" transform="translate(109.125 -3.125)">
    <path id="Path_1141" data-name="Path 1141" d="M7.632,11.349h8.224v-7.4a.822.822,0,0,0-.822-.822H2.7a.822.822,0,0,0-.822.822V20.4a.822.822,0,0,0,.822.822H15.034a.822.822,0,0,0,.822-.822v-7.4H7.632Z" transform="translate(-111)" fill="red"/>
    <path id="Path_1142" data-name="Path 1142" d="M19.661,10.685,14.967,5.991,13.8,7.154l3.29,3.29H12.5v1.645h4.594l-3.29,3.29,1.163,1.163,4.694-4.694a.822.822,0,0,0,0-1.163Z" transform="translate(-107.644 0.905)" fill="red"/>
  </g>
</svg>
